<?xml version="1.0" standalone="no"?>
<!DOCTYPE svg PUBLIC "-//W3C//DTD SVG 20010904//EN"
 "http://www.w3.org/TR/2001/REC-SVG-20010904/DTD/svg10.dtd">
<svg version="1.0" xmlns="http://www.w3.org/2000/svg"
 width="1020.000000pt" height="1020.000000pt" viewBox="0 0 1020.000000 1020.000000"
 preserveAspectRatio="xMidYMid meet">
<metadata>
Created by potrace 1.11, written by Peter Selinger 2001-2013
</metadata>
<g transform="translate(0.000000,1020.000000) scale(0.100000,-0.100000)"
fill="#000000" stroke="none">
<path d="M4959 8401 c-130 -95 -169 -158 -172 -274 -2 -66 -2 -67 -34 -78 -66
-21 -137 12 -183 86 -12 19 -25 35 -29 35 -4 0 -6 -51 -5 -114 2 -137 21 -201
76 -256 l38 -37 -40 -27 -41 -27 -32 22 c-113 78 -147 142 -162 304 -8 89 -21
118 -58 138 -60 33 -126 27 -226 -20 -76 -36 -123 -74 -159 -131 -67 -105 -83
-260 -43 -407 12 -43 27 -85 32 -92 8 -9 4 -14 -18 -18 -114 -24 -202 -60
-273 -112 -65 -48 -176 -170 -199 -219 -43 -91 -33 -201 23 -247 101 -84 356
-93 581 -20 28 8 55 19 60 23 21 15 44 19 40 7 -2 -7 -6 -30 -9 -53 -5 -38
-55 -205 -76 -249 -119 -259 -204 -505 -226 -655 -8 -55 -7 -181 1 -218 3 -15
7 -38 10 -51 20 -107 101 -259 187 -351 63 -68 216 -172 328 -222 66 -30 155
-56 268 -79 63 -12 120 -29 128 -36 8 -8 14 -30 14 -49 0 -19 0 -37 1 -41 0
-5 -14 -16 -33 -26 -18 -11 -44 -29 -58 -42 -14 -12 -48 -30 -76 -39 -55 -18
-226 -117 -319 -186 -177 -130 -322 -376 -351 -595 -3 -27 -7 -52 -9 -55 -2
-3 -6 -30 -10 -60 -10 -87 -16 -114 -24 -123 -4 -4 -87 -8 -183 -8 -220 1
-270 -14 -332 -101 -16 -22 -30 -37 -33 -34 -11 11 -95 -28 -123 -57 -55 -57
-72 -109 -75 -234 -5 -160 24 -254 88 -293 35 -22 69 -25 97 -10 14 8 19 5 24
-13 13 -46 89 -112 148 -127 25 -7 163 -11 376 -11 l336 0 71 -72 c79 -81 110
-106 209 -165 l69 -41 -2 -83 c-5 -173 -17 -234 -50 -256 -32 -22 -103 -52
-196 -82 -38 -13 -82 -31 -96 -41 -61 -43 -63 -130 -4 -175 43 -33 116 -38
234 -18 78 14 84 14 97 -3 7 -10 14 -29 14 -41 0 -45 32 -133 56 -157 58 -58
151 -36 191 45 12 25 25 59 28 75 3 17 8 37 10 45 2 8 4 18 4 21 1 3 13 5 29
3 15 -2 50 -7 77 -11 45 -6 118 -7 185 -3 14 1 50 0 80 -2 30 -3 91 1 135 7
46 7 85 8 91 3 6 -4 14 -27 18 -49 8 -51 42 -118 73 -144 27 -24 83 -31 115
-14 50 27 65 53 83 144 12 64 27 95 43 95 9 -1 49 -7 87 -14 176 -34 274 10
261 119 -6 53 -44 84 -138 114 -40 13 -105 38 -145 56 -65 30 -73 37 -83 72
-6 21 -13 97 -17 168 l-6 130 35 13 c59 21 210 126 280 195 l66 66 280 0 c182
0 295 4 323 11 55 15 102 50 136 101 24 36 28 38 62 33 102 -15 164 107 157
311 -4 116 -23 178 -69 225 -33 34 -82 60 -114 60 -10 1 -27 15 -38 32 -26 42
-91 87 -141 98 -21 5 -92 10 -157 10 l-118 0 -34 73 c-19 39 -59 163 -89 274
-31 112 -69 232 -86 267 -35 71 -134 194 -196 241 -120 92 -198 136 -291 165
-38 12 -58 25 -75 50 -13 18 -44 44 -70 57 -41 21 -46 26 -42 50 7 38 11 42
52 48 103 18 373 90 427 114 320 145 560 530 547 875 -1 33 -9 89 -17 124 -18
74 -100 250 -155 332 -50 74 -74 128 -116 266 -19 64 -41 133 -49 152 -19 44
-20 68 -2 55 32 -25 192 -62 286 -67 114 -5 209 25 293 94 97 80 84 216 -31
303 -58 44 -181 101 -286 132 -44 13 -79 28 -78 34 1 5 16 31 33 58 136 213
48 532 -169 614 -97 36 -213 8 -239 -59 -6 -15 -14 -58 -16 -97 -9 -129 -35
-175 -129 -236 -33 -22 -64 -39 -68 -39 -4 0 -24 25 -44 55 -21 30 -41 55 -46
55 -24 0 -3 37 56 100 36 38 65 73 65 77 0 15 -113 53 -190 64 -41 7 -77 14
-79 16 -2 1 10 21 28 43 18 22 29 45 26 50 -11 19 -139 50 -219 54 -93 5 -174
-7 -227 -34 -34 -18 -38 -18 -60 -2 -68 47 -102 116 -103 209 -1 45 -5 73 -12
73 -6 0 -35 -18 -65 -39z m31 -5877 c136 -13 240 -10 375 10 l40 6 -1 -92 c0
-51 -4 -102 -7 -113 -4 -11 -33 -37 -65 -57 -31 -21 -88 -62 -126 -92 l-68
-55 -62 52 c-35 29 -93 73 -129 99 -43 30 -67 55 -68 68 -1 11 -1 49 -1 85 0
105 0 107 20 101 9 -3 51 -8 92 -12z"/>
</g>
</svg>
